<svg width="247" height="100" viewBox="0 0 247 100" fill="none" xmlns="http://www.w3.org/2000/svg">
<path d="M90.7573 3.20609C90.5867 10.7127 90.5148 16.6804 90.416 32.771C90.2724 54.4018 90.416 81.4873 90.7573 96.3125L90.8291 99.4331L90.883 97.4667C91.1075 90.2849 91.323 67.081 91.323 49.8448C91.323 32.6256 91.1075 9.15669 90.883 1.96638L90.8291 -5.34058e-05L90.7573 3.20609Z" fill="black"/>
<path d="M4.04083 17.7064C2.13715 18.0911 0.529798 19.6129 0.134694 21.3913C0.0448981 21.776 0 22.5027 0 23.5116C0 24.5205 0.0448981 25.2472 0.134694 25.6319C0.431022 26.9742 1.4996 28.2823 2.78368 28.8808C3.95104 29.428 4.17553 29.4537 9.29391 29.4537C14.6817 29.4537 15.445 29.5306 16.765 30.1462C17.6719 30.5651 17.7258 30.6934 17.7617 32.3007C17.7886 33.5404 17.7797 33.6772 17.6001 34.0278C17.3756 34.4723 16.9086 34.8485 16.2262 35.1392C15.0319 35.6351 15.1127 35.6351 9.42861 35.695C4.74124 35.7463 4.12165 35.7633 3.68165 35.9001C2.8645 36.1481 2.14613 36.567 1.56246 37.1057C0.96082 37.6785 0.619594 38.1744 0.278368 39.0208L0.0448981 39.5851L0.0179593 50.5287C0 58.1807 0.0179593 61.6348 0.0897963 62.0195C0.341226 63.4302 1.18531 63.9347 2.3796 63.396C2.85552 63.1908 3.75348 62.3444 14.547 51.9993C18.6237 48.0835 19.6564 47.1345 20.3029 46.7241C21.2278 46.1427 21.9283 45.8691 22.6736 45.8093C23.1315 45.7751 23.2572 45.7922 23.5266 45.9717C24.4066 46.5274 24.9454 48.8359 24.5593 50.3919C24.254 51.5974 24.6042 51.2383 14.1878 61.25C8.88085 66.3628 4.12165 70.954 3.61879 71.4499C1.32001 73.7241 -0.323267 77.1782 0.0808166 78.9052C0.314287 79.9141 1.27511 80.8631 2.57715 81.3846C3.86124 81.8976 2.10123 81.8634 32.7756 81.8463L60.837 81.8207L61.4207 81.624C63.0819 81.0512 64.366 79.7516 64.779 78.2212C64.9047 77.7424 64.9227 74.9638 64.9227 49.7165C64.9227 24.4692 64.9047 21.6905 64.779 21.2117C64.366 19.6813 63.0819 18.3818 61.4207 17.8089L60.837 17.6123L32.7307 17.5952C8.87187 17.5867 4.53471 17.6038 4.04083 17.7064ZM25.6189 29.7102C26.1397 29.8982 26.6875 30.283 26.8491 30.5651C26.894 30.6506 26.9568 31.3346 26.9748 32.0784C27.0646 34.7545 27.756 36.8235 29.2466 38.7899C29.8393 39.5765 31.1324 40.782 31.9854 41.372C33.3054 42.2611 35.1552 42.9879 36.7806 43.2614C37.8042 43.4324 39.8606 43.4239 40.9022 43.2529C45.7781 42.4407 49.6573 38.7386 50.5104 34.0876C50.5912 33.6772 50.672 32.7538 50.69 32.0271C50.7349 30.4198 50.7888 30.3086 51.7227 29.8469C53.4018 29.0091 56.4639 29.5734 57.1643 30.8387C57.2541 31.0012 57.29 31.3944 57.29 32.2067C57.29 40.0981 51.6329 47.0917 43.6051 49.118C41.8271 49.5626 40.992 49.6652 38.8818 49.6652C36.7087 49.6737 35.7659 49.5626 33.9071 49.0753C30.8989 48.2887 28.3217 46.8865 26.014 44.7662C22.3862 41.4318 20.3838 36.9689 20.3838 32.2238C20.3838 30.9755 20.4376 30.7874 20.8956 30.377C21.2278 30.0778 21.9462 29.7358 22.5927 29.5819C23.383 29.3938 24.9454 29.4622 25.6189 29.7102ZM44.4941 29.5819C46.0745 29.8042 47.0353 30.1462 47.6998 30.719L48.059 31.0268L48.0141 32.3606C47.9692 33.9081 47.7986 34.6177 47.1969 35.8317C46.6761 36.8834 46.1643 37.5759 45.3561 38.3539C44.979 38.7044 44.4132 39.1576 44.099 39.3628C43.3267 39.8672 42.0426 40.4315 41.1716 40.6538C40.2557 40.8932 38.361 40.9787 37.3822 40.8248C33.6287 40.2519 30.5667 37.4733 29.8034 33.9508C29.6956 33.4293 29.6328 32.8137 29.6328 32.0955V31.0097L29.9291 30.7361C30.4679 30.2146 31.8777 29.7272 33.3324 29.5477C33.6467 29.505 36.0801 29.4708 38.7471 29.4622C42.6263 29.4537 43.7757 29.4793 44.4941 29.5819Z" fill="black"/>
<path d="M129.881 39.4569C128.13 39.7561 126.81 40.6966 126.074 42.15C125.58 43.1247 125.401 43.9711 125.419 45.2707C125.437 47.126 125.912 48.3657 127.026 49.4344C128.139 50.5031 129.594 50.9904 131.372 50.8793C132.872 50.7938 133.922 50.4091 134.838 49.6054C136.167 48.4512 136.841 46.4249 136.589 44.373C136.275 41.8593 134.973 40.2349 132.719 39.5937C132.135 39.4227 130.528 39.3457 129.881 39.4569ZM132.198 41.5516C132.71 41.7225 133.357 42.2526 133.662 42.74C134.587 44.2447 134.362 47.0319 133.231 48.1605C132.369 49.024 130.636 49.2377 129.459 48.6222C128.391 48.075 127.789 46.8182 127.78 45.1339C127.78 44.4157 128.014 43.3641 128.274 42.8768C128.472 42.5091 128.992 41.979 129.379 41.7482C130.079 41.3378 131.282 41.2523 132.198 41.5516Z" fill="black"/>
<path d="M153.139 39.4569C151.388 39.7561 150.068 40.6966 149.331 42.15C148.837 43.1247 148.658 43.9711 148.676 45.2707C148.694 47.126 149.17 48.3657 150.283 49.4344C151.396 50.5031 152.851 50.9904 154.629 50.8793C156.129 50.7938 157.179 50.4091 158.095 49.6054C159.424 48.4512 160.098 46.4249 159.846 44.373C159.532 41.8593 158.23 40.2349 155.976 39.5937C155.392 39.4227 153.785 39.3457 153.139 39.4569ZM155.455 41.5516C155.967 41.7225 156.614 42.2526 156.919 42.74C157.844 44.2447 157.619 47.0319 156.488 48.1605C155.626 49.024 153.893 49.2377 152.716 48.6222C151.648 48.075 151.046 46.8182 151.037 45.1339C151.037 44.4157 151.271 43.3641 151.531 42.8768C151.729 42.5091 152.25 41.979 152.636 41.7482C153.336 41.3378 154.539 41.2523 155.455 41.5516Z" fill="black"/>
<path d="M179.143 39.4911C177.437 39.8416 176.315 40.6282 175.641 41.9791C175.147 42.9623 174.977 43.7916 174.977 45.1852C174.995 48.7248 176.746 50.7169 179.988 50.8879C182.915 51.0418 185.016 49.6482 185.384 47.297L185.447 46.8952H184.289H183.139L182.978 47.3312C182.78 47.8442 182.304 48.3743 181.801 48.6308C181.487 48.7932 181.29 48.8188 180.481 48.8188C179.601 48.8188 179.494 48.8017 179.009 48.5624C178.012 48.075 177.464 47.0576 177.374 45.5272C177.258 43.6206 177.877 42.2527 179.107 41.6713C179.494 41.4917 179.673 41.4661 180.535 41.4661C181.379 41.4661 181.577 41.4917 181.891 41.6542C182.268 41.8423 182.592 42.1672 182.942 42.7058C183.247 43.1675 183.624 43.3043 184.612 43.3043H185.447L185.384 42.8939C185.124 41.2267 184.091 40.0896 182.376 39.5852C181.703 39.3885 179.907 39.3372 179.143 39.4911Z" fill="black"/>
<path d="M190.054 39.4911C188.626 39.7476 187.656 40.4914 187.306 41.6028C187.036 42.4578 187.09 43.5351 187.423 44.0908C187.997 45.0142 189.003 45.5357 191.445 46.1684C193.241 46.6301 193.628 46.7925 193.834 47.1687C194.005 47.485 193.969 48.0664 193.753 48.3828C193.268 49.0838 191.014 49.2548 190.081 48.6649C189.694 48.417 189.407 47.998 189.335 47.5791L189.272 47.2371H188.114C186.803 47.2371 186.884 47.1773 187.045 48.0066C187.333 49.4258 188.231 50.315 189.784 50.6997C190.539 50.8878 191.984 50.9477 192.837 50.8365C195.226 50.5116 196.339 49.4258 196.33 47.4081C196.33 46.3137 195.944 45.6212 195.082 45.1424C194.66 44.9116 193.134 44.4328 191.832 44.125C190.61 43.8343 190.072 43.612 189.685 43.1931C189.389 42.8853 189.362 42.8169 189.407 42.4749C189.461 42.0218 189.677 41.7054 190.108 41.466C190.359 41.3207 190.574 41.2951 191.356 41.2951C192.514 41.2951 192.855 41.4404 193.439 42.1671C193.906 42.7571 194.175 42.8682 195.154 42.8682L195.846 42.8767V42.5861C195.846 42.1329 195.513 41.2267 195.19 40.7735C194.813 40.252 194.193 39.8502 193.439 39.6193C192.667 39.3885 190.961 39.3286 190.054 39.4911Z" fill="black"/>
<path d="M209.944 39.4911C208.237 39.8416 207.115 40.6282 206.441 41.9791C205.948 42.9623 205.777 43.7916 205.777 45.1852C205.795 48.7248 207.546 50.7169 210.788 50.8879C213.715 51.0418 215.816 49.6482 216.184 47.297L216.247 46.8952H215.089H213.939L213.778 47.3312C213.58 47.8442 213.104 48.3743 212.602 48.6308C212.287 48.7932 212.09 48.8188 211.282 48.8188C210.402 48.8188 210.294 48.8017 209.809 48.5624C208.812 48.075 208.264 47.0576 208.175 45.5272C208.058 43.6206 208.677 42.2527 209.908 41.6713C210.294 41.4917 210.473 41.4661 211.335 41.4661C212.179 41.4661 212.377 41.4917 212.691 41.6542C213.068 41.8423 213.392 42.1672 213.742 42.7058C214.047 43.1675 214.424 43.3043 215.412 43.3043H216.247L216.184 42.8939C215.924 41.2267 214.891 40.0896 213.176 39.5852C212.503 39.3885 210.707 39.3372 209.944 39.4911Z" fill="black"/>
<path d="M115.209 39.7305C114.553 40.1409 114.58 39.9271 114.58 45.6298V50.7425H115.792H117.005V48.5623V46.3822H118.513C120.12 46.3822 120.507 46.442 120.839 46.7412C121.135 47.0063 121.234 47.4252 121.315 48.9385C121.351 49.6738 121.431 50.3749 121.485 50.5031L121.584 50.7425H122.886H124.197L124.018 50.5031C123.865 50.3065 123.829 50.0414 123.748 48.6478C123.622 46.3992 123.443 45.9119 122.572 45.5101L122.285 45.3818L122.698 45.1852C123.165 44.9714 123.452 44.6551 123.757 44.0224C124.027 43.4581 124.045 42.0474 123.793 41.3378C123.542 40.6453 122.868 40.0383 122.069 39.7903C121.485 39.6022 121.288 39.5937 118.486 39.5595L115.523 39.5338L115.209 39.7305ZM120.857 41.6627C121.324 41.885 121.521 42.2013 121.566 42.7742C121.62 43.5009 121.369 44.0224 120.848 44.2447C120.507 44.3901 120.255 44.4157 118.738 44.4157H117.005V42.9623V41.5088H118.782C120.291 41.5088 120.596 41.5345 120.857 41.6627Z" fill="black"/>
<path d="M138.565 39.6963C138.394 39.7818 138.179 39.987 138.089 40.1494C137.936 40.423 137.927 40.765 137.927 45.587V50.7425H140.882C144.168 50.7425 144.806 50.6741 145.713 50.2466C146.323 49.9474 146.934 49.3575 147.185 48.8188C147.401 48.3571 147.571 47.1602 147.482 46.6899C147.347 45.8948 146.826 45.2279 146.072 44.8689L145.731 44.7064L146.126 44.4414C146.404 44.2618 146.602 44.0224 146.781 43.6804C147.015 43.2359 147.042 43.082 147.042 42.3638C147.042 41.6456 147.015 41.4917 146.79 41.0642C146.521 40.5427 146.198 40.2349 145.632 39.9613C144.913 39.6108 144.231 39.5424 141.474 39.5424C139.122 39.5424 138.834 39.5595 138.565 39.6963ZM143.971 41.6285C144.473 41.8252 144.617 42.056 144.617 42.663C144.617 43.1418 144.59 43.2359 144.366 43.4581C143.989 43.8343 143.602 43.9027 141.842 43.9027H140.262V42.7058V41.5088H141.968C143.216 41.5088 143.755 41.543 143.971 41.6285ZM144.294 45.9974C144.815 46.2881 144.976 46.5788 144.976 47.22C144.976 47.9211 144.779 48.2802 144.258 48.5196C143.926 48.6735 143.701 48.6906 142.076 48.6906H140.262V47.2286V45.7751L142.13 45.8008C143.8 45.8264 144.024 45.8435 144.294 45.9974Z" fill="black"/>
<path d="M161.373 39.6877C160.915 39.9015 160.735 40.252 160.735 40.9274V41.5088H162.441H164.148V46.1257V50.7425H165.36H166.572V46.1257V41.5088H168.323H170.074V40.5256V39.5424H165.881C162.145 39.5424 161.642 39.5595 161.373 39.6877Z" fill="black"/>
<path d="M171.897 39.6792C171.322 39.9528 171.331 39.8331 171.331 45.5614V50.7425H172.543H173.756V45.1424V39.5424H172.974C172.445 39.5424 172.094 39.5937 171.897 39.6792Z" fill="black"/>
<path d="M218.196 39.739C217.558 40.1409 217.576 39.9357 217.576 45.6298V50.7425H221.662H225.748V49.7165V48.6906H222.874H220.001V44.1165V39.5424H219.247C218.618 39.5424 218.456 39.5766 218.196 39.739Z" fill="black"/>
<path d="M227.445 39.739C226.825 40.1323 226.825 40.1323 226.825 43.9455C226.825 47.7415 226.87 48.1348 227.373 49.0411C228.029 50.2039 229.178 50.7767 231.091 50.8878C233.641 51.0332 235.419 50.0243 235.94 48.1348C236.047 47.7159 236.074 46.9464 236.074 43.5864V39.5424H234.907H233.749L233.722 43.4923L233.695 47.4509L233.479 47.8612C233.363 48.0835 233.129 48.3828 232.949 48.5196C232.114 49.1779 230.444 49.0411 229.762 48.2631C229.277 47.7159 229.25 47.4594 229.25 43.3299V39.5424H228.496C227.867 39.5424 227.705 39.5766 227.445 39.739Z" fill="black"/>
<path d="M238.059 39.6963C237.888 39.7818 237.673 39.987 237.583 40.1494C237.43 40.423 237.421 40.765 237.421 45.587V50.7425H240.376C243.662 50.7425 244.3 50.6741 245.207 50.2466C245.817 49.9474 246.428 49.3575 246.679 48.8188C246.895 48.3571 247.065 47.1602 246.976 46.6899C246.841 45.8948 246.32 45.2279 245.566 44.8689L245.225 44.7064L245.62 44.4414C245.898 44.2618 246.096 44.0224 246.275 43.6804C246.509 43.2359 246.536 43.082 246.536 42.3638C246.536 41.6456 246.509 41.4917 246.284 41.0642C246.015 40.5427 245.692 40.2349 245.126 39.9613C244.407 39.6108 243.725 39.5424 240.968 39.5424C238.616 39.5424 238.328 39.5595 238.059 39.6963ZM243.465 41.6285C243.967 41.8252 244.111 42.056 244.111 42.663C244.111 43.1418 244.084 43.2359 243.86 43.4581C243.483 43.8343 243.096 43.9027 241.336 43.9027H239.756V42.7058V41.5088H241.462C242.71 41.5088 243.249 41.543 243.465 41.6285ZM243.788 45.9974C244.309 46.2881 244.47 46.5788 244.47 47.22C244.47 47.9211 244.273 48.2802 243.752 48.5196C243.42 48.6735 243.195 48.6906 241.57 48.6906H239.756V47.2286V45.7751L241.624 45.8008C243.294 45.8264 243.518 45.8435 243.788 45.9974Z" fill="black"/>
<path d="M154.495 53.8631C152.501 54.2735 150.714 55.8296 150.086 57.7019C149.78 58.6168 149.709 59.8479 149.906 60.7456C149.987 61.0962 150.211 61.7118 150.418 62.1136C150.723 62.7121 150.939 62.9771 151.612 63.6098C152.771 64.6956 153.669 65.1231 155.195 65.2684C156.695 65.4223 158.176 65.0547 159.326 64.251L159.927 63.8235V61.9853V60.1472H159.613H159.299V61.84V63.5328L159.029 63.7295C158.518 64.0886 157.494 64.4904 156.847 64.593C156.039 64.7298 154.935 64.6614 154.171 64.4306C152.546 63.9432 151.073 62.4641 150.633 60.8653C150.463 60.2669 150.445 58.8989 150.589 58.309C150.885 57.1548 151.846 55.8808 152.95 55.1883C154.468 54.2393 156.65 54.1367 158.302 54.9233C158.589 55.0686 158.949 55.2738 159.092 55.3935C159.433 55.6671 159.487 55.6671 159.739 55.4106L159.936 55.2054L159.595 54.9404C159.083 54.5385 157.898 54.0085 157.189 53.8631C156.425 53.7092 155.222 53.7092 154.495 53.8631Z" fill="black"/>
<path d="M114.221 59.5487V65.1915H114.535H114.849V59.5487V53.9059H114.535H114.221V59.5487Z" fill="black"/>
<path d="M121.674 59.5487V65.1915H121.988H122.303V59.5487V53.9059H121.988H121.674V59.5487Z" fill="black"/>
<path d="M128.409 54.2052V54.5044H129.935H131.462V59.848V65.1915H131.776H132.09V59.848V54.5044H133.572H135.054V54.2052V53.9059H131.731H128.409V54.2052Z" fill="black"/>
<path d="M206.621 59.5487V65.1915H206.936H207.25V62.4471C207.25 59.8052 207.259 59.6855 207.439 59.4119C207.834 58.7964 208.839 58.3603 209.612 58.4715C210.213 58.557 210.923 59.0015 211.246 59.4974L211.515 59.9164L211.542 62.5582L211.569 65.1915H211.919H212.279V62.8489C212.279 61.5665 212.234 60.3097 212.189 60.0617C211.991 59.0785 211.363 58.3432 210.402 58.0012C209.692 57.7533 208.66 57.796 207.995 58.1209C207.744 58.2492 207.51 58.386 207.474 58.4373C207.286 58.7194 207.25 58.3432 207.25 56.2143V53.9059H206.936H206.621V59.5487Z" fill="black"/>
<path d="M233.812 56.7444L233.785 58.2235L233.049 58.2492L232.303 58.2748V58.5655V58.8648H233.066H233.83V62.0281V65.1915H234.144H234.458V62.0281V58.8648H235.222H235.985V58.5655V58.2663H235.222H234.458V56.7701V55.2739H234.144H233.83L233.812 56.7444Z" fill="black"/>
<path d="M241.92 55.9407C241.651 56.1374 241.642 56.5905 241.893 56.8299C242.297 57.2232 242.989 56.9582 242.989 56.4195C242.989 55.8809 242.351 55.5988 241.92 55.9407Z" fill="black"/>
<path d="M195.576 57.6763C194.463 57.8473 193.286 58.6766 192.73 59.694C191.652 61.6434 192.478 64.0116 194.579 65.0034C195.244 65.3198 195.271 65.3198 196.331 65.3198C197.363 65.3198 197.444 65.3027 198.019 65.0462C198.369 64.8923 198.827 64.5845 199.114 64.3194L199.617 63.8578V64.5246V65.1915H199.976H200.335V61.7289V58.2662H199.976H199.617V58.7108V59.1554L199.15 58.7023C198.575 58.1636 197.803 57.7875 197.013 57.6678C196.348 57.5737 196.259 57.5737 195.576 57.6763ZM197.695 58.5569C198.351 58.8476 199.015 59.4632 199.348 60.0873C199.599 60.5661 199.617 60.6687 199.617 61.5066C199.617 62.2846 199.581 62.4727 199.393 62.866C199.105 63.4474 198.396 64.1228 197.749 64.4049C197.291 64.6101 197.13 64.6358 196.295 64.6358C195.486 64.6358 195.289 64.6016 194.921 64.4306C194.247 64.1142 193.646 63.5414 193.313 62.9002C193.035 62.3701 193.017 62.2761 193.017 61.4724C193.026 60.4293 193.188 60.0275 193.888 59.3264C194.373 58.8391 194.957 58.4971 195.549 58.3517C196.097 58.2235 197.157 58.3261 197.695 58.5569Z" fill="black"/>
<path d="M221.797 57.6763C220.683 57.8473 219.507 58.6766 218.95 59.694C217.873 61.6434 218.699 64.0116 220.8 65.0034C221.465 65.3198 221.492 65.3198 222.551 65.3198C223.584 65.3198 223.665 65.3027 224.239 65.0462C224.59 64.8923 225.047 64.5845 225.335 64.3194L225.838 63.8578V64.5246V65.1915H226.197H226.556V61.7289V58.2662H226.197H225.838V58.7108V59.1554L225.371 58.7023C224.796 58.1636 224.024 57.7875 223.234 57.6678C222.569 57.5737 222.479 57.5737 221.797 57.6763ZM223.916 58.5569C224.572 58.8476 225.236 59.4632 225.568 60.0873C225.82 60.5661 225.838 60.6687 225.838 61.5066C225.838 62.2846 225.802 62.4727 225.613 62.866C225.326 63.4474 224.616 64.1228 223.97 64.4049C223.512 64.6101 223.35 64.6358 222.515 64.6358C221.707 64.6358 221.51 64.6016 221.141 64.4306C220.468 64.1142 219.866 63.5414 219.534 62.9002C219.256 62.3701 219.238 62.2761 219.238 61.4724C219.247 60.4293 219.408 60.0275 220.109 59.3264C220.594 58.8391 221.177 58.4971 221.77 58.3517C222.318 58.2235 223.377 58.3261 223.916 58.5569Z" fill="black"/>
<path d="M166.141 60.7628C166.168 63.1054 166.177 63.2935 166.357 63.6611C166.635 64.2339 167.138 64.7213 167.722 64.9949C168.18 65.2086 168.332 65.2343 169.131 65.2343C169.904 65.2343 170.092 65.2086 170.469 65.0291C171.035 64.764 171.511 64.3109 171.789 63.7723C172.005 63.3619 172.005 63.302 172.032 60.8055L172.059 58.2662H171.744H171.43L171.403 60.6773C171.376 62.9686 171.367 63.1139 171.179 63.4388C170.739 64.2254 170.047 64.6272 169.131 64.6272C168.135 64.6272 167.353 64.1484 166.976 63.2849C166.869 63.0284 166.842 62.5411 166.842 60.6174V58.2662H166.473H166.105L166.141 60.7628Z" fill="black"/>
<path d="M178.856 61.7289C180.41 66.1149 180.212 66.0123 181.344 62.9943C181.784 61.8144 182.179 60.8226 182.206 60.7884C182.233 60.7628 182.619 61.6947 183.05 62.8575C183.481 64.0288 183.858 65.0291 183.885 65.0804C183.903 65.1402 184.011 65.1915 184.127 65.1915C184.298 65.1915 184.37 65.106 184.513 64.6957C185.878 60.8825 186.776 58.3603 186.776 58.3176C186.776 58.2834 186.606 58.2663 186.408 58.2834L186.031 58.309L185.097 61.0791C184.585 62.6095 184.154 63.8663 184.136 63.8834C184.127 63.9005 183.732 62.9088 183.274 61.6862C182.511 59.677 182.412 59.4632 182.233 59.4632C182.008 59.4632 182.071 59.3264 181.029 62.088C180.67 63.0456 180.347 63.8236 180.32 63.8236C180.293 63.8236 179.844 62.5753 179.332 61.0449L178.389 58.2663H178.012H177.626L178.856 61.7289Z" fill="black"/>
<path d="M242.001 61.7289V65.1915H242.36H242.719V61.7289V58.2663H242.36H242.001V61.7289Z" fill="black"/>
</svg>
