<svg width="901" height="95" viewBox="0 0 901 95" fill="none" xmlns="http://www.w3.org/2000/svg">
<path d="M75.1568 95V37.1H128.107V16.4H0.606836V37.1H53.8568V95H75.1568ZM139.178 81.5C139.178 83.6333 139.612 85.5333 140.478 87.2C141.412 88.8667 142.612 90.2667 144.078 91.4C145.612 92.5333 147.345 93.4333 149.278 94.1C151.212 94.7 153.245 95 155.378 95H224.178V81.2H153.378V75.3H224.178V62.2H139.178V81.5ZM224.178 56.3V42.6H155.378C153.445 42.6 151.512 42.9 149.578 43.5C147.645 44.1 145.912 44.9667 144.378 46.1C142.845 47.2333 141.578 48.6333 140.578 50.3C139.645 51.9667 139.178 53.8333 139.178 55.9V56.3H224.178ZM318.026 81.2H255.926C252.726 81.2 250.459 80.5667 249.126 79.3C247.859 78.0333 247.226 76 247.226 73.2V64.2C247.226 61.6667 247.893 59.7333 249.226 58.4C250.559 57 252.826 56.3 256.026 56.3H318.026V42.6H249.226C247.293 42.6 245.359 42.9333 243.426 43.6C241.493 44.2 239.759 45.1 238.226 46.3C236.693 47.4333 235.426 48.8667 234.426 50.6C233.493 52.2667 233.026 54.1333 233.026 56.2V81.5C233.026 83.6333 233.459 85.5333 234.326 87.2C235.259 88.8667 236.459 90.2667 237.926 91.4C239.459 92.5333 241.193 93.4333 243.126 94.1C245.059 94.7 247.093 95 249.226 95H318.026V81.2ZM341.074 95V75.3H397.674V95H411.874V42.6H397.674V62.2H341.074V42.6H326.874V95H341.074ZM487.601 59.54H514.601L544.481 95H573.281L535.841 47.84L573.281 0.679991H544.481L514.601 35.96H487.601V59.54ZM478.601 35.96L449.081 0.679991H420.281L457.721 47.84L420.281 95H449.081L478.601 59.54V35.96ZM595.761 95V75.3H652.361V95H666.561V42.6H652.361V62.2H595.761V42.6H581.561V95H595.761ZM689.709 95V42.6H675.409V95H689.709ZM698.553 95H767.353C769.42 95 771.42 94.7 773.353 94.1C775.353 93.4333 777.087 92.5333 778.553 91.4C780.087 90.2667 781.287 88.8667 782.153 87.2C783.087 85.5333 783.553 83.6333 783.553 81.5V75.2C783.553 74.7333 783.387 74.2 783.053 73.6C782.72 72.9333 782.32 72.3 781.853 71.7C781.453 71.1 780.987 70.5333 780.453 70C779.987 69.4667 779.587 69.0667 779.253 68.8C780.053 68.1333 780.953 67.1667 781.953 65.9C783.02 64.6333 783.553 63.4667 783.553 62.4V56.1C783.553 54.0333 783.087 52.1667 782.153 50.5C781.287 48.7667 780.087 47.3333 778.553 46.2C777.087 45.0667 775.353 44.2 773.353 43.6C771.42 42.9333 769.42 42.6 767.353 42.6H698.553V56.3H769.353V62.2H698.553V95ZM712.753 75.3H769.353V81.3H712.753V75.3ZM806.701 95V42.6H792.401V95H806.701ZM865.246 95V56.4H900.546V42.6H815.546V56.4H851.046V95H865.246Z" fill="url(#paint0_linear)"/>
<defs>
<linearGradient id="paint0_linear" x1="449.5" y1="-35" x2="449.5" y2="323" gradientUnits="userSpaceOnUse">
<stop stop-color="white"/>
<stop offset="0.628125" stop-color="#FF0000"/>
</linearGradient>
</defs>
</svg>
